<?xml version="1.0" encoding="UTF-8"?>
<!DOCTYPE svg PUBLIC "-//W3C//DTD SVG 1.1//EN" "http://www.w3.org/Graphics/SVG/1.1/DTD/svg11.dtd">
<svg version="1.1" style="background:transparent" xmlns="http://www.w3.org/2000/svg" xmlns:xlink="http://www.w3.org/1999/xlink" x="0" y="0" width="300" height="300" viewBox="0, 0, 300, 300">
  <g id="Layer_1">
    <path d="M62.773,280.103 L39.476,243.682 L58.926,204.5 L98.894,201.235 L121.764,238.638 L103.169,277.338 z" fill="#000000"/>
    <path d="M60.128,192.942 L33.162,155.661 L52.216,118.203 L96.33,118.947 L119.84,153.92 L96.711,189.907 z" fill="#808080"/>
    <path d="M51.232,107.191 L28.362,72.139 L42.041,41.575 L79.017,43.285 L105.52,76.627 L90.772,109.543 z" fill="#000000"/>
    <path d="M119.84,153.92 L96.33,118.947 L115.163,81.226 L150.618,84.334 L173.06,121.525 L160.022,150.508 z" fill="#808080"/>
    <path d="M128.817,235.86 L105.52,197.387 L126.039,162.121 L164.228,158.555 L184.602,192.942 L164.511,233.722 z" fill="#649614"/>
    <path d="M190.586,274.118 L173.06,238.852 L190.373,201.235 L219.868,201.448 L235.043,236.501 L218.586,270.057 z" fill="#000000"/>
    <path d="M184.602,192.942 L164.228,158.555 L181.823,121.525 L212.601,125.04 L228.13,162.121 L218.372,192.696 z" fill="#649614"/>
    <path d="M271.638,19.897 L271.638,195.658 C250.418,111.262 183.669,44.502 100.56,19.897 L271.638,19.897 z" fill="#808080"/>
  </g>
  <g id="Layer_2" display="none"/>
</svg>
