<?xml version="1.0" encoding="UTF-8"?>
<!DOCTYPE svg PUBLIC "-//W3C//DTD SVG 1.1//EN" "http://www.w3.org/Graphics/SVG/1.1/DTD/svg11.dtd">
<svg version="1.1" xmlns="http://www.w3.org/2000/svg" xmlns:xlink="http://www.w3.org/1999/xlink" x="0" y="0" width="500" height="475" viewBox="0, 0, 500, 475">
  <g id="Layer_1">
    <path d="M483.5,21.024 L483.5,437.571 L482.62,437.571 C471.404,213.217 287.147,35.783 64.209,21.755 L64.209,21.024 L483.5,21.024 z" fill="#808080"/>
    <path d="M272.66,321.621 L239.6,266.497 L272.66,211.373 L338.78,211.373 L371.84,266.497 L338.78,321.621 z" fill="#649614"/>
    <path d="M168.627,248.26 L135.567,193.137 L168.627,138.013 L234.747,138.013 L267.807,193.137 L234.747,248.26 z" fill="#808080"/>
    <path d="M75.541,303.537 L42.481,248.413 L75.541,193.289 L141.661,193.289 L174.721,248.413 L141.661,303.537 z" fill="#808080"/>
    <path d="M182.08,374.521 L149.02,319.397 L182.08,264.274 L248.2,264.274 L281.26,319.397 L248.2,374.521 z" fill="#649614"/>
    <g>
      <path d="M58.33,432.368 L25.27,377.245 L58.33,322.121 L124.45,322.121 L157.51,377.245 L124.45,432.368 z" fill="#FFFFFF"/>
      <path d="M58.33,432.368 L25.27,377.245 L58.33,322.121 L124.45,322.121 L157.51,377.245 L124.45,432.368 z" fill-opacity="0" stroke="#000000" stroke-width="2.5"/>
    </g>
    <g>
      <path d="M62.442,177.576 L29.382,122.452 L62.442,67.328 L128.561,67.328 L161.621,122.452 L128.561,177.576 z" fill="#FFFFFF"/>
      <path d="M62.442,177.576 L29.382,122.452 L62.442,67.328 L128.561,67.328 L161.621,122.452 L128.561,177.576 z" fill-opacity="0" stroke="#000000" stroke-width="2.5"/>
    </g>
    <g>
      <path d="M285.856,446.918 L252.796,391.794 L285.856,336.67 L351.975,336.67 L385.035,391.794 L351.975,446.918 z" fill="#FFFFFF"/>
      <path d="M285.856,446.918 L252.796,391.794 L285.856,336.67 L351.975,336.67 L385.035,391.794 L351.975,446.918 z" fill-opacity="0" stroke="#000000" stroke-width="2.5"/>
    </g>
  </g>
</svg>
